<svg width="420" height="169" viewBox="0 0 420 169" fill="none" xmlns="http://www.w3.org/2000/svg">
<path d="M237 28H181C180.448 28 180 28.447 180 29V73C180 73.553 180.448 74 181 74H237C237.552 74 238 73.553 238 73V29C238 28.447 237.552 28 237 28ZM236 72H182V30H236V72Z" fill="#B9C5CC"/>
<path d="M196 50.138C199.071 50.138 201.569 47.64 201.569 44.57C201.569 41.498 199.071 39 196 39C192.929 39 190.431 41.498 190.431 44.569C190.431 47.64 192.929 50.138 196 50.138ZM196 41C197.968 41 199.569 42.602 199.569 44.569C199.569 46.536 197.968 48.138 196 48.138C194.032 48.138 192.431 46.537 192.431 44.57C192.431 42.603 194.032 41 196 41Z" fill="#B9C5CC"/>
<path d="M187 68C187.234 68 187.47 67.918 187.66 67.751L203.973 53.389L214.275 63.69C214.666 64.081 215.298 64.081 215.689 63.69C216.08 63.299 216.08 62.667 215.689 62.276L210.882 57.469L220.063 47.415L231.324 57.738C231.731 58.111 232.364 58.083 232.737 57.676C233.11 57.269 233.083 56.636 232.675 56.263L220.675 45.263C220.479 45.084 220.218 44.995 219.955 45.001C219.69 45.013 219.44 45.13 219.261 45.326L209.467 56.053L204.724 51.31C204.35 50.937 203.752 50.918 203.356 51.266L186.339 66.249C185.924 66.614 185.884 67.246 186.249 67.661C186.447 67.886 186.723 68 187 68Z" fill="#B9C5CC"/>
<rect x="123" y="95" width="173" height="36" rx="18" fill="#CBD6DC"/>
<path d="M160.949 109.992V117.076H159.647V109.992H160.949ZM163.735 112.904V114.15H156.847V112.904H163.735ZM177.631 118H176.049L175.167 115.578H171.289L170.407 118H168.867L172.353 108.76H174.145L177.631 118ZM171.709 114.36H174.747L173.235 110.048L171.709 114.36ZM179.815 109.824C179.489 109.824 179.237 109.745 179.059 109.586C178.891 109.418 178.807 109.185 178.807 108.886C178.807 108.587 178.891 108.359 179.059 108.2C179.237 108.041 179.489 107.962 179.815 107.962C180.133 107.962 180.375 108.041 180.543 108.2C180.721 108.359 180.809 108.587 180.809 108.886C180.809 109.185 180.721 109.418 180.543 109.586C180.375 109.745 180.133 109.824 179.815 109.824ZM180.557 111V118.616C180.557 119.213 180.445 119.685 180.221 120.03C180.007 120.385 179.722 120.637 179.367 120.786C179.022 120.935 178.653 121.01 178.261 121.01C177.944 121.01 177.655 120.968 177.393 120.884C177.132 120.8 176.913 120.688 176.735 120.548L176.987 119.344C177.118 119.456 177.277 119.549 177.463 119.624C177.641 119.699 177.841 119.736 178.065 119.736C178.364 119.736 178.602 119.638 178.779 119.442C178.966 119.255 179.059 118.933 179.059 118.476V111H180.557ZM185.939 110.86C186.621 110.86 187.223 111.005 187.745 111.294C188.268 111.583 188.674 112.003 188.963 112.554C189.262 113.095 189.411 113.744 189.411 114.5C189.411 115.256 189.262 115.909 188.963 116.46C188.674 117.001 188.268 117.417 187.745 117.706C187.223 117.995 186.621 118.14 185.939 118.14C185.258 118.14 184.656 117.995 184.133 117.706C183.611 117.417 183.2 117.001 182.901 116.46C182.603 115.909 182.453 115.256 182.453 114.5C182.453 113.744 182.603 113.095 182.901 112.554C183.2 112.003 183.611 111.583 184.133 111.294C184.656 111.005 185.258 110.86 185.939 110.86ZM185.939 112.036C185.519 112.036 185.16 112.134 184.861 112.33C184.572 112.517 184.348 112.792 184.189 113.156C184.031 113.52 183.951 113.968 183.951 114.5C183.951 115.023 184.031 115.471 184.189 115.844C184.348 116.208 184.572 116.488 184.861 116.684C185.16 116.871 185.519 116.964 185.939 116.964C186.359 116.964 186.714 116.871 187.003 116.684C187.293 116.488 187.517 116.208 187.675 115.844C187.834 115.471 187.913 115.023 187.913 114.5C187.913 113.968 187.834 113.52 187.675 113.156C187.517 112.792 187.293 112.517 187.003 112.33C186.714 112.134 186.359 112.036 185.939 112.036ZM193.788 118.14C193.33 118.14 192.906 118.056 192.514 117.888C192.131 117.72 191.823 117.449 191.59 117.076C191.356 116.703 191.24 116.217 191.24 115.62V111H192.738V115.242C192.738 115.877 192.873 116.315 193.144 116.558C193.414 116.791 193.792 116.908 194.278 116.908C194.511 116.908 194.735 116.871 194.95 116.796C195.174 116.712 195.374 116.586 195.552 116.418C195.729 116.241 195.864 116.017 195.958 115.746C196.06 115.475 196.112 115.158 196.112 114.794V111H197.61V118H196.294L196.224 116.866C195.981 117.305 195.654 117.627 195.244 117.832C194.833 118.037 194.348 118.14 193.788 118.14ZM201.994 108.942V115.9C201.994 116.245 202.083 116.497 202.26 116.656C202.447 116.815 202.694 116.894 203.002 116.894C203.254 116.894 203.473 116.857 203.66 116.782C203.847 116.698 204.019 116.586 204.178 116.446L204.514 117.538C204.299 117.725 204.033 117.874 203.716 117.986C203.408 118.089 203.063 118.14 202.68 118.14C202.279 118.14 201.91 118.075 201.574 117.944C201.238 117.813 200.977 117.603 200.79 117.314C200.603 117.015 200.505 116.628 200.496 116.152V109.362L201.994 108.942ZM204.402 111V112.176H199.152V111H204.402ZM208.964 118.14C208.264 118.14 207.648 117.995 207.116 117.706C206.584 117.417 206.168 117.001 205.87 116.46C205.58 115.909 205.436 115.256 205.436 114.5C205.436 113.744 205.58 113.095 205.87 112.554C206.168 112.003 206.579 111.583 207.102 111.294C207.624 111.005 208.217 110.86 208.88 110.86C209.561 110.86 210.14 111 210.616 111.28C211.092 111.56 211.456 111.943 211.708 112.428C211.96 112.913 212.086 113.464 212.086 114.08C212.086 114.248 212.081 114.407 212.072 114.556C212.062 114.705 212.048 114.836 212.03 114.948H206.402V113.8H211.372L210.63 114.024C210.63 113.389 210.471 112.904 210.154 112.568C209.836 112.223 209.402 112.05 208.852 112.05C208.45 112.05 208.1 112.143 207.802 112.33C207.503 112.517 207.274 112.797 207.116 113.17C206.957 113.534 206.878 113.982 206.878 114.514C206.878 115.037 206.962 115.48 207.13 115.844C207.298 116.208 207.536 116.483 207.844 116.67C208.152 116.857 208.516 116.95 208.936 116.95C209.402 116.95 209.78 116.861 210.07 116.684C210.359 116.507 210.588 116.259 210.756 115.942L211.946 116.502C211.778 116.838 211.549 117.132 211.26 117.384C210.98 117.627 210.644 117.813 210.252 117.944C209.86 118.075 209.43 118.14 208.964 118.14ZM213.977 118V111H215.251L215.391 112.26C215.578 111.803 215.853 111.457 216.217 111.224C216.591 110.981 217.048 110.86 217.589 110.86C217.729 110.86 217.869 110.874 218.009 110.902C218.149 110.921 218.266 110.953 218.359 111L218.149 112.316C218.047 112.279 217.93 112.251 217.799 112.232C217.678 112.204 217.51 112.19 217.295 112.19C217.006 112.19 216.721 112.269 216.441 112.428C216.161 112.577 215.928 112.806 215.741 113.114C215.564 113.422 215.475 113.814 215.475 114.29V118H213.977ZM224.026 120.94V111H225.356L225.468 112.96L225.272 112.722C225.384 112.358 225.557 112.036 225.79 111.756C226.024 111.476 226.313 111.257 226.658 111.098C227.013 110.939 227.4 110.86 227.82 110.86C228.39 110.86 228.908 111.005 229.374 111.294C229.841 111.583 230.21 111.999 230.48 112.54C230.751 113.072 230.886 113.721 230.886 114.486C230.886 115.251 230.746 115.909 230.466 116.46C230.196 117.001 229.822 117.417 229.346 117.706C228.88 117.995 228.357 118.14 227.778 118.14C227.181 118.14 226.672 117.986 226.252 117.678C225.832 117.361 225.534 116.959 225.356 116.474L225.524 116.236V120.94H224.026ZM227.456 116.922C228.063 116.922 228.534 116.707 228.87 116.278C229.216 115.849 229.388 115.256 229.388 114.5C229.388 113.744 229.22 113.151 228.884 112.722C228.548 112.283 228.082 112.064 227.484 112.064C227.092 112.064 226.747 112.167 226.448 112.372C226.159 112.568 225.93 112.848 225.762 113.212C225.604 113.567 225.524 113.996 225.524 114.5C225.524 114.995 225.604 115.424 225.762 115.788C225.921 116.152 226.145 116.432 226.434 116.628C226.724 116.824 227.064 116.922 227.456 116.922ZM232.804 118V107.85H234.302V112.12C234.535 111.681 234.848 111.364 235.24 111.168C235.641 110.963 236.084 110.86 236.57 110.86C237.064 110.86 237.508 110.958 237.9 111.154C238.301 111.341 238.618 111.625 238.852 112.008C239.085 112.391 239.202 112.876 239.202 113.464V118H237.704V113.94C237.704 113.249 237.559 112.769 237.27 112.498C236.99 112.227 236.635 112.092 236.206 112.092C235.907 112.092 235.608 112.167 235.31 112.316C235.02 112.456 234.778 112.689 234.582 113.016C234.395 113.333 234.302 113.763 234.302 114.304V118H232.804ZM244.51 110.86C245.191 110.86 245.793 111.005 246.316 111.294C246.838 111.583 247.244 112.003 247.534 112.554C247.832 113.095 247.982 113.744 247.982 114.5C247.982 115.256 247.832 115.909 247.534 116.46C247.244 117.001 246.838 117.417 246.316 117.706C245.793 117.995 245.191 118.14 244.51 118.14C243.828 118.14 243.226 117.995 242.704 117.706C242.181 117.417 241.77 117.001 241.472 116.46C241.173 115.909 241.024 115.256 241.024 114.5C241.024 113.744 241.173 113.095 241.472 112.554C241.77 112.003 242.181 111.583 242.704 111.294C243.226 111.005 243.828 110.86 244.51 110.86ZM244.51 112.036C244.09 112.036 243.73 112.134 243.432 112.33C243.142 112.517 242.918 112.792 242.76 113.156C242.601 113.52 242.522 113.968 242.522 114.5C242.522 115.023 242.601 115.471 242.76 115.844C242.918 116.208 243.142 116.488 243.432 116.684C243.73 116.871 244.09 116.964 244.51 116.964C244.93 116.964 245.284 116.871 245.574 116.684C245.863 116.488 246.087 116.208 246.246 115.844C246.404 115.471 246.484 115.023 246.484 114.5C246.484 113.968 246.404 113.52 246.246 113.156C246.087 112.792 245.863 112.517 245.574 112.33C245.284 112.134 244.93 112.036 244.51 112.036ZM251.814 108.942V115.9C251.814 116.245 251.903 116.497 252.08 116.656C252.267 116.815 252.514 116.894 252.822 116.894C253.074 116.894 253.294 116.857 253.48 116.782C253.667 116.698 253.84 116.586 253.998 116.446L254.334 117.538C254.12 117.725 253.854 117.874 253.536 117.986C253.228 118.089 252.883 118.14 252.5 118.14C252.099 118.14 251.73 118.075 251.394 117.944C251.058 117.813 250.797 117.603 250.61 117.314C250.424 117.015 250.326 116.628 250.316 116.152V109.362L251.814 108.942ZM254.222 111V112.176H248.972V111H254.222ZM258.742 110.86C259.423 110.86 260.025 111.005 260.548 111.294C261.071 111.583 261.477 112.003 261.766 112.554C262.065 113.095 262.214 113.744 262.214 114.5C262.214 115.256 262.065 115.909 261.766 116.46C261.477 117.001 261.071 117.417 260.548 117.706C260.025 117.995 259.423 118.14 258.742 118.14C258.061 118.14 257.459 117.995 256.936 117.706C256.413 117.417 256.003 117.001 255.704 116.46C255.405 115.909 255.256 115.256 255.256 114.5C255.256 113.744 255.405 113.095 255.704 112.554C256.003 112.003 256.413 111.583 256.936 111.294C257.459 111.005 258.061 110.86 258.742 110.86ZM258.742 112.036C258.322 112.036 257.963 112.134 257.664 112.33C257.375 112.517 257.151 112.792 256.992 113.156C256.833 113.52 256.754 113.968 256.754 114.5C256.754 115.023 256.833 115.471 256.992 115.844C257.151 116.208 257.375 116.488 257.664 116.684C257.963 116.871 258.322 116.964 258.742 116.964C259.162 116.964 259.517 116.871 259.806 116.684C260.095 116.488 260.319 116.208 260.478 115.844C260.637 115.471 260.716 115.023 260.716 114.5C260.716 113.968 260.637 113.52 260.478 113.156C260.319 112.792 260.095 112.517 259.806 112.33C259.517 112.134 259.162 112.036 258.742 112.036Z" fill="#306685"/>
<path d="M164.606 141.04C164.426 141.04 164.28 140.987 164.166 140.88C164.06 140.767 164.006 140.62 164.006 140.44C164.006 140.26 164.06 140.117 164.166 140.01C164.28 139.897 164.426 139.84 164.606 139.84C164.786 139.84 164.93 139.897 165.036 140.01C165.15 140.117 165.206 140.26 165.206 140.44C165.206 140.62 165.15 140.767 165.036 140.88C164.93 140.987 164.786 141.04 164.606 141.04ZM165.006 142V147.51C165.006 147.923 164.926 148.25 164.766 148.49C164.606 148.73 164.41 148.9 164.176 149C163.943 149.1 163.713 149.15 163.486 149.15C163.28 149.15 163.09 149.117 162.916 149.05C162.743 148.99 162.6 148.913 162.486 148.82L162.656 148.06C162.75 148.147 162.866 148.22 163.006 148.28C163.146 148.34 163.303 148.37 163.476 148.37C163.69 148.37 163.863 148.3 163.996 148.16C164.136 148.02 164.206 147.777 164.206 147.43V142H165.006ZM166.863 149.1V142H167.563L167.633 143.22L167.523 143.08C167.609 142.847 167.739 142.643 167.913 142.47C168.086 142.29 168.296 142.15 168.543 142.05C168.789 141.95 169.056 141.9 169.343 141.9C169.749 141.9 170.123 142.003 170.463 142.21C170.809 142.417 171.086 142.713 171.293 143.1C171.499 143.487 171.603 143.953 171.603 144.5C171.603 145.04 171.496 145.507 171.283 145.9C171.076 146.287 170.799 146.583 170.453 146.79C170.106 146.997 169.726 147.1 169.313 147.1C168.899 147.1 168.536 147 168.223 146.8C167.916 146.593 167.696 146.333 167.563 146.02L167.663 145.87V149.1H166.863ZM169.233 146.4C169.726 146.4 170.109 146.227 170.383 145.88C170.663 145.533 170.803 145.073 170.803 144.5C170.803 143.927 170.666 143.467 170.393 143.12C170.126 142.773 169.749 142.6 169.263 142.6C168.943 142.6 168.663 142.68 168.423 142.84C168.183 142.993 167.996 143.213 167.863 143.5C167.729 143.78 167.663 144.113 167.663 144.5C167.663 144.88 167.726 145.213 167.853 145.5C167.986 145.787 168.169 146.01 168.403 146.17C168.643 146.323 168.919 146.4 169.233 146.4ZM177.342 141.08L177.522 141.79C177.515 141.79 177.505 141.79 177.492 141.79C177.479 141.79 177.465 141.79 177.452 141.79C177.125 141.79 176.872 141.857 176.692 141.99C176.519 142.117 176.432 142.323 176.432 142.61L175.942 142.36C175.942 142.1 176.002 141.873 176.122 141.68C176.242 141.487 176.405 141.34 176.612 141.24C176.819 141.133 177.045 141.08 177.292 141.08C177.299 141.08 177.305 141.08 177.312 141.08C177.325 141.08 177.335 141.08 177.342 141.08ZM175.822 146.36C176.295 146.36 176.665 146.47 176.932 146.69C177.199 146.903 177.332 147.19 177.332 147.55C177.332 147.877 177.222 148.16 177.002 148.4C176.789 148.64 176.499 148.823 176.132 148.95C175.772 149.083 175.365 149.15 174.912 149.15C174.125 149.15 173.535 149.017 173.142 148.75C172.755 148.483 172.562 148.163 172.562 147.79C172.562 147.523 172.649 147.283 172.822 147.07C173.002 146.863 173.302 146.747 173.722 146.72L173.652 146.87C173.425 146.81 173.232 146.71 173.072 146.57C172.919 146.423 172.842 146.213 172.842 145.94C172.842 145.667 172.942 145.433 173.142 145.24C173.349 145.04 173.652 144.917 174.052 144.87L174.582 145.14H174.482C174.155 145.173 173.922 145.257 173.782 145.39C173.649 145.517 173.582 145.657 173.582 145.81C173.582 145.997 173.649 146.137 173.782 146.23C173.922 146.317 174.115 146.36 174.362 146.36H175.822ZM174.902 148.48C175.289 148.48 175.605 148.44 175.852 148.36C176.105 148.28 176.292 148.177 176.412 148.05C176.532 147.923 176.592 147.787 176.592 147.64C176.592 147.46 176.519 147.317 176.372 147.21C176.232 147.103 175.975 147.05 175.602 147.05H174.062C173.849 147.05 173.669 147.103 173.522 147.21C173.375 147.323 173.302 147.477 173.302 147.67C173.302 147.917 173.442 148.113 173.722 148.26C174.009 148.407 174.402 148.48 174.902 148.48ZM174.832 141.9C175.232 141.9 175.585 141.973 175.892 142.12C176.205 142.26 176.449 142.457 176.622 142.71C176.795 142.963 176.882 143.257 176.882 143.59C176.882 143.917 176.795 144.21 176.622 144.47C176.449 144.723 176.205 144.923 175.892 145.07C175.585 145.21 175.232 145.28 174.832 145.28C174.172 145.28 173.665 145.123 173.312 144.81C172.959 144.49 172.782 144.083 172.782 143.59C172.782 143.257 172.869 142.963 173.042 142.71C173.222 142.457 173.465 142.26 173.772 142.12C174.079 141.973 174.432 141.9 174.832 141.9ZM174.832 142.55C174.485 142.55 174.195 142.647 173.962 142.84C173.729 143.027 173.612 143.277 173.612 143.59C173.612 143.897 173.729 144.147 173.962 144.34C174.195 144.533 174.485 144.63 174.832 144.63C175.179 144.63 175.469 144.533 175.702 144.34C175.935 144.147 176.052 143.897 176.052 143.59C176.052 143.277 175.935 143.027 175.702 142.84C175.469 142.647 175.179 142.55 174.832 142.55ZM178.854 145.8C179.014 145.8 179.148 145.843 179.254 145.93C179.368 146.01 179.454 146.123 179.514 146.27C179.574 146.41 179.604 146.577 179.604 146.77C179.604 146.99 179.564 147.207 179.484 147.42C179.411 147.633 179.294 147.83 179.134 148.01C178.974 148.19 178.768 148.34 178.514 148.46L178.094 148.07C178.274 148.01 178.431 147.927 178.564 147.82C178.704 147.713 178.818 147.593 178.904 147.46C178.991 147.327 179.048 147.19 179.074 147.05L179.034 147.03C179.008 147.05 178.974 147.067 178.934 147.08C178.894 147.093 178.834 147.1 178.754 147.1C178.674 147.1 178.591 147.077 178.504 147.03C178.424 146.983 178.354 146.917 178.294 146.83C178.234 146.737 178.204 146.617 178.204 146.47C178.204 146.35 178.234 146.24 178.294 146.14C178.354 146.033 178.431 145.95 178.524 145.89C178.624 145.83 178.734 145.8 178.854 145.8ZM184.519 149.1V142H185.219L185.289 143.22L185.179 143.08C185.266 142.847 185.396 142.643 185.569 142.47C185.742 142.29 185.952 142.15 186.199 142.05C186.446 141.95 186.712 141.9 186.999 141.9C187.406 141.9 187.779 142.003 188.119 142.21C188.466 142.417 188.742 142.713 188.949 143.1C189.156 143.487 189.259 143.953 189.259 144.5C189.259 145.04 189.152 145.507 188.939 145.9C188.732 146.287 188.456 146.583 188.109 146.79C187.762 146.997 187.382 147.1 186.969 147.1C186.556 147.1 186.192 147 185.879 146.8C185.572 146.593 185.352 146.333 185.219 146.02L185.319 145.87V149.1H184.519ZM186.889 146.4C187.382 146.4 187.766 146.227 188.039 145.88C188.319 145.533 188.459 145.073 188.459 144.5C188.459 143.927 188.322 143.467 188.049 143.12C187.782 142.773 187.406 142.6 186.919 142.6C186.599 142.6 186.319 142.68 186.079 142.84C185.839 142.993 185.652 143.213 185.519 143.5C185.386 143.78 185.319 144.113 185.319 144.5C185.319 144.88 185.382 145.213 185.509 145.5C185.642 145.787 185.826 146.01 186.059 146.17C186.299 146.323 186.576 146.4 186.889 146.4ZM190.788 147V142H191.488L191.558 143.12L191.428 143.01C191.535 142.743 191.678 142.53 191.858 142.37C192.038 142.203 192.245 142.083 192.478 142.01C192.718 141.937 192.965 141.9 193.218 141.9C193.578 141.9 193.905 141.97 194.198 142.11C194.492 142.243 194.725 142.45 194.898 142.73C195.078 143.01 195.168 143.367 195.168 143.8V147H194.368V144.08C194.368 143.527 194.248 143.143 194.008 142.93C193.775 142.71 193.485 142.6 193.138 142.6C192.898 142.6 192.658 142.657 192.418 142.77C192.178 142.883 191.978 143.067 191.818 143.32C191.665 143.573 191.588 143.913 191.588 144.34V147H190.788ZM201.19 141.08L201.37 141.79C201.363 141.79 201.353 141.79 201.34 141.79C201.326 141.79 201.313 141.79 201.3 141.79C200.973 141.79 200.72 141.857 200.54 141.99C200.366 142.117 200.28 142.323 200.28 142.61L199.79 142.36C199.79 142.1 199.85 141.873 199.97 141.68C200.09 141.487 200.253 141.34 200.46 141.24C200.666 141.133 200.893 141.08 201.14 141.08C201.146 141.08 201.153 141.08 201.16 141.08C201.173 141.08 201.183 141.08 201.19 141.08ZM199.67 146.36C200.143 146.36 200.513 146.47 200.78 146.69C201.046 146.903 201.18 147.19 201.18 147.55C201.18 147.877 201.07 148.16 200.85 148.4C200.636 148.64 200.346 148.823 199.98 148.95C199.62 149.083 199.213 149.15 198.76 149.15C197.973 149.15 197.383 149.017 196.99 148.75C196.603 148.483 196.41 148.163 196.41 147.79C196.41 147.523 196.496 147.283 196.67 147.07C196.85 146.863 197.15 146.747 197.57 146.72L197.5 146.87C197.273 146.81 197.08 146.71 196.92 146.57C196.766 146.423 196.69 146.213 196.69 145.94C196.69 145.667 196.79 145.433 196.99 145.24C197.196 145.04 197.5 144.917 197.9 144.87L198.43 145.14H198.33C198.003 145.173 197.77 145.257 197.63 145.39C197.496 145.517 197.43 145.657 197.43 145.81C197.43 145.997 197.496 146.137 197.63 146.23C197.77 146.317 197.963 146.36 198.21 146.36H199.67ZM198.75 148.48C199.136 148.48 199.453 148.44 199.7 148.36C199.953 148.28 200.14 148.177 200.26 148.05C200.38 147.923 200.44 147.787 200.44 147.64C200.44 147.46 200.366 147.317 200.22 147.21C200.08 147.103 199.823 147.05 199.45 147.05H197.91C197.696 147.05 197.516 147.103 197.37 147.21C197.223 147.323 197.15 147.477 197.15 147.67C197.15 147.917 197.29 148.113 197.57 148.26C197.856 148.407 198.25 148.48 198.75 148.48ZM198.68 141.9C199.08 141.9 199.433 141.973 199.74 142.12C200.053 142.26 200.296 142.457 200.47 142.71C200.643 142.963 200.73 143.257 200.73 143.59C200.73 143.917 200.643 144.21 200.47 144.47C200.296 144.723 200.053 144.923 199.74 145.07C199.433 145.21 199.08 145.28 198.68 145.28C198.02 145.28 197.513 145.123 197.16 144.81C196.806 144.49 196.63 144.083 196.63 143.59C196.63 143.257 196.716 142.963 196.89 142.71C197.07 142.457 197.313 142.26 197.62 142.12C197.926 141.973 198.28 141.9 198.68 141.9ZM198.68 142.55C198.333 142.55 198.043 142.647 197.81 142.84C197.576 143.027 197.46 143.277 197.46 143.59C197.46 143.897 197.576 144.147 197.81 144.34C198.043 144.533 198.333 144.63 198.68 144.63C199.026 144.63 199.316 144.533 199.55 144.34C199.783 144.147 199.9 143.897 199.9 143.59C199.9 143.277 199.783 143.027 199.55 142.84C199.316 142.647 199.026 142.55 198.68 142.55ZM206.26 141.9C206.454 141.9 206.61 141.96 206.73 142.08C206.85 142.2 206.91 142.357 206.91 142.55C206.91 142.743 206.85 142.9 206.73 143.02C206.61 143.14 206.454 143.2 206.26 143.2C206.067 143.2 205.91 143.14 205.79 143.02C205.67 142.9 205.61 142.743 205.61 142.55C205.61 142.357 205.67 142.2 205.79 142.08C205.91 141.96 206.067 141.9 206.26 141.9ZM206.26 145.8C206.454 145.8 206.61 145.86 206.73 145.98C206.85 146.1 206.91 146.257 206.91 146.45C206.91 146.643 206.85 146.8 206.73 146.92C206.61 147.04 206.454 147.1 206.26 147.1C206.067 147.1 205.91 147.04 205.79 146.92C205.67 146.8 205.61 146.643 205.61 146.45C205.61 146.257 205.67 146.1 205.79 145.98C205.91 145.86 206.067 145.8 206.26 145.8ZM214.807 147V145.27H211.587V144.68L214.597 140.4H215.607V144.58H216.777V145.27H215.607V147H214.807ZM212.437 144.58H214.807V142.11C214.807 141.937 214.811 141.76 214.817 141.58C214.831 141.4 214.841 141.223 214.847 141.05H214.827C214.747 141.217 214.644 141.403 214.517 141.61C214.391 141.817 214.274 141.997 214.167 142.15L212.437 144.58ZM218.191 147V142H218.891L218.941 142.78C219.121 142.473 219.354 142.25 219.641 142.11C219.934 141.97 220.234 141.9 220.541 141.9C220.894 141.9 221.227 141.98 221.541 142.14C221.854 142.3 222.094 142.547 222.261 142.88C222.367 142.653 222.517 142.47 222.711 142.33C222.904 142.183 223.114 142.077 223.341 142.01C223.574 141.937 223.794 141.9 224.001 141.9C224.321 141.9 224.624 141.967 224.911 142.1C225.204 142.233 225.444 142.44 225.631 142.72C225.817 143 225.911 143.36 225.911 143.8V147H225.111V143.88C225.111 143.427 224.997 143.1 224.771 142.9C224.544 142.7 224.264 142.6 223.931 142.6C223.671 142.6 223.427 142.663 223.201 142.79C222.974 142.917 222.791 143.103 222.651 143.35C222.517 143.597 222.451 143.9 222.451 144.26V147H221.651V143.88C221.651 143.427 221.537 143.1 221.311 142.9C221.084 142.7 220.804 142.6 220.471 142.6C220.251 142.6 220.024 142.66 219.791 142.78C219.564 142.893 219.374 143.077 219.221 143.33C219.067 143.583 218.991 143.917 218.991 144.33V147H218.191ZM229.792 141.9C230.265 141.9 230.682 142.003 231.042 142.21C231.409 142.417 231.695 142.717 231.902 143.11C232.109 143.497 232.212 143.96 232.212 144.5C232.212 145.04 232.109 145.507 231.902 145.9C231.695 146.287 231.409 146.583 231.042 146.79C230.682 146.997 230.265 147.1 229.792 147.1C229.325 147.1 228.909 146.997 228.542 146.79C228.175 146.583 227.889 146.287 227.682 145.9C227.475 145.507 227.372 145.04 227.372 144.5C227.372 143.96 227.475 143.497 227.682 143.11C227.889 142.717 228.175 142.417 228.542 142.21C228.909 142.003 229.325 141.9 229.792 141.9ZM229.792 142.59C229.452 142.59 229.162 142.667 228.922 142.82C228.682 142.973 228.495 143.193 228.362 143.48C228.235 143.76 228.172 144.1 228.172 144.5C228.172 144.893 228.235 145.233 228.362 145.52C228.495 145.807 228.682 146.027 228.922 146.18C229.162 146.333 229.452 146.41 229.792 146.41C230.132 146.41 230.422 146.333 230.662 146.18C230.902 146.027 231.085 145.807 231.212 145.52C231.345 145.233 231.412 144.893 231.412 144.5C231.412 144.1 231.345 143.76 231.212 143.48C231.085 143.193 230.902 142.973 230.662 142.82C230.422 142.667 230.132 142.59 229.792 142.59ZM237.126 147V142H237.826L237.876 142.78C238.056 142.473 238.29 142.25 238.576 142.11C238.87 141.97 239.17 141.9 239.476 141.9C239.83 141.9 240.163 141.98 240.476 142.14C240.79 142.3 241.03 142.547 241.196 142.88C241.303 142.653 241.453 142.47 241.646 142.33C241.84 142.183 242.05 142.077 242.276 142.01C242.51 141.937 242.73 141.9 242.936 141.9C243.256 141.9 243.56 141.967 243.846 142.1C244.14 142.233 244.38 142.44 244.566 142.72C244.753 143 244.846 143.36 244.846 143.8V147H244.046V143.88C244.046 143.427 243.933 143.1 243.706 142.9C243.48 142.7 243.2 142.6 242.866 142.6C242.606 142.6 242.363 142.663 242.136 142.79C241.91 142.917 241.726 143.103 241.586 143.35C241.453 143.597 241.386 143.9 241.386 144.26V147H240.586V143.88C240.586 143.427 240.473 143.1 240.246 142.9C240.02 142.7 239.74 142.6 239.406 142.6C239.186 142.6 238.96 142.66 238.726 142.78C238.5 142.893 238.31 143.077 238.156 143.33C238.003 143.583 237.926 143.917 237.926 144.33V147H237.126ZM249.578 143.77C249.578 143.397 249.478 143.11 249.278 142.91C249.078 142.703 248.794 142.6 248.428 142.6C248.081 142.6 247.788 142.677 247.548 142.83C247.308 142.977 247.131 143.217 247.018 143.55L246.368 143.15C246.501 142.777 246.748 142.477 247.108 142.25C247.468 142.017 247.914 141.9 248.448 141.9C248.808 141.9 249.134 141.963 249.428 142.09C249.721 142.21 249.951 142.397 250.118 142.65C250.291 142.897 250.378 143.217 250.378 143.61V146.03C250.378 146.27 250.504 146.39 250.758 146.39C250.884 146.39 251.008 146.373 251.128 146.34L251.088 146.97C250.954 147.037 250.781 147.07 250.568 147.07C250.374 147.07 250.201 147.033 250.048 146.96C249.894 146.887 249.774 146.777 249.688 146.63C249.601 146.477 249.558 146.287 249.558 146.06V145.96L249.758 145.99C249.678 146.25 249.541 146.463 249.348 146.63C249.154 146.79 248.938 146.91 248.698 146.99C248.458 147.063 248.221 147.1 247.988 147.1C247.694 147.1 247.421 147.05 247.168 146.95C246.914 146.85 246.711 146.7 246.558 146.5C246.411 146.293 246.338 146.04 246.338 145.74C246.338 145.367 246.461 145.06 246.708 144.82C246.961 144.573 247.311 144.407 247.758 144.32L249.738 143.93V144.59L248.128 144.92C247.801 144.987 247.558 145.08 247.398 145.2C247.238 145.32 247.158 145.487 247.158 145.7C247.158 145.907 247.238 146.077 247.398 146.21C247.564 146.337 247.798 146.4 248.098 146.4C248.291 146.4 248.474 146.377 248.648 146.33C248.828 146.277 248.988 146.2 249.128 146.1C249.268 145.993 249.378 145.863 249.458 145.71C249.538 145.55 249.578 145.363 249.578 145.15V143.77ZM252.802 142L254.292 144.09L254.342 144.16L256.392 147H255.412L253.862 144.83L253.772 144.72L251.802 142H252.802ZM256.362 142L254.382 144.67H254.332L252.612 147H251.682L253.862 144.13H253.922L255.422 142H256.362Z" fill="#444444"/>
</svg>
